<?xml version="1.0" standalone="no"?>
<!DOCTYPE svg PUBLIC "-//W3C//DTD SVG 20010904//EN"
 "http://www.w3.org/TR/2001/REC-SVG-20010904/DTD/svg10.dtd">
<svg version="1.0" xmlns="http://www.w3.org/2000/svg"
 width="30.000000pt" height="30.000000pt" viewBox="0 0 30.000000 30.000000"
 preserveAspectRatio="xMidYMid meet">

<g transform="translate(0.000000,30.000000) scale(0.100000,-0.100000)"
fill="#000000" stroke="none">
<path d="M67 293 c-4 -3 -7 -22 -7 -41 0 -20 -5 -50 -11 -67 -18 -49 -3 -103
41 -147 23 -23 47 -38 62 -38 63 0 134 145 98 200 -7 11 -10 6 -10 -21 0 -31
-4 -38 -27 -44 -19 -4 -29 -2 -35 9 -5 9 -14 16 -19 16 -6 0 -7 -4 -4 -10 3
-5 1 -10 -4 -10 -6 0 -11 -4 -11 -10 0 -5 7 -10 15 -10 8 0 12 -6 9 -14 -4 -9
3 -13 20 -13 14 0 26 5 26 12 0 7 7 15 15 19 21 8 19 -10 -6 -54 -29 -50 -56
-63 -97 -43 -46 22 -46 59 -1 111 16 18 29 39 29 47 0 23 -12 45 -24 45 -15
-1 -46 -64 -46 -95 0 -13 -4 -27 -10 -30 -17 -10 -11 75 7 106 17 29 54 51
104 63 36 8 46 -18 13 -33 -13 -6 -24 -16 -24 -22 0 -6 3 -9 8 -7 57 28 63 33
60 52 -4 30 -46 32 -108 5 -52 -22 -67 -21 -57 5 4 10 13 13 23 9 12 -4 15 -3
10 5 -8 13 -29 16 -39 5z"/>
</g>
</svg>
